<?xml version="1.0" standalone="no"?><!DOCTYPE svg PUBLIC "-//W3C//DTD SVG 1.1//EN" "http://www.w3.org/Graphics/SVG/1.1/DTD/svg11.dtd"><svg t="1764389396314" class="icon" viewBox="0 0 1024 1024" version="1.1" xmlns="http://www.w3.org/2000/svg" p-id="1261" width="256" height="256" xmlns:xlink="http://www.w3.org/1999/xlink"><path d="M0.006384 0h1021.446384v1021.446384H0.006384V0z" fill="#FFFFFF" p-id="1262"></path><path d="M766.091172 924.408978c-1.496419-16.618933 1.910105-31.940628 10.214464-45.965088 17.042833-12.793616 18.743541-27.262404 5.107232-43.411471-13.927421-4.177716-27.548409-3.329915-40.857856 2.553616 7.415701 7.354414 12.522933 15.863062 15.321696 25.53616 2.43615 39.30015-16.286963 60.581985-56.179551 63.840399l-45.965087 5.107231c-2.839621 1.95607-4.540329 4.509686-5.107232 7.660848-27.216439 14.172569-56.159122 18.426893-86.822943 12.76808a2973.767501 2973.767501 0 0 0-53.625935-33.197007l-17.875312 2.553616c-16.700648 25.199082-40.530993 36.261347-71.501247 33.197007-25.112259 1.373845-45.541187-7.992818-61.286783-28.089775l-66.394015-5.107232c-28.968219-11.950923-40.035591-33.232758-33.197007-63.840399a210.683531 210.683531 0 0 1 22.982544-30.643392 453.915451 453.915451 0 0 1-7.660848-143.002494 6026.242554 6026.242554 0 0 1 38.304239-168.538653 377.771731 377.771731 0 0 1-51.072319-74.054863c-11.981566 0.403471-23.048938 4.657796-33.197008 12.76808a22.737397 22.737397 0 0 1-7.660847-10.214464c22.696539-7.318663 32.911002-22.640359 30.643391-45.965087-14.7599-1.133805-28.380888 2.272718-40.857855 10.214464l-5.107232-7.660848c10.418753-12.86001 24.034633-18.82015 40.857855-17.875312v-30.643392c-13.380948-1.368738-26.149027 0.33197-38.304239 5.107232L199.188429 349.845387c14.029566-8.192 29.351262-12.451431 45.965087-12.76808 1.736459-29.902843 11.103122-57.139711 28.089776-81.715711l5.107232-107.25187c4.586294-21.935561 13.94785-41.511581 28.089775-58.733167 20.188888-4.657796 38.917107-1.251272 56.179551 10.214463A709.302584 709.302584 0 0 1 436.674713 168.538653c49.249037-12.665935 98.615541-12.665935 148.109726 0L643.517606 109.805486c20.531072-18.794613 44.366524-25.607661 71.501247-20.428927a133.007641 133.007641 0 0 1 22.982544 38.304239 991.329037 991.329037 0 0 1 10.214463 127.680798c16.000958 26.71593 25.362514 55.658613 28.089776 86.822943h40.857855c1.118484 6.000998-0.582224 11.108229-5.107232 15.321695a78.753516 78.753516 0 0 0-35.750623-5.107232 50.357307 50.357307 0 0 0 5.107232 30.643392 99.662524 99.662524 0 0 1 35.750623 15.321696c-1.700708 5.107232-5.107232 8.513756-10.214464 10.214464a107.415302 107.415302 0 0 0-35.750623-10.214464l-5.107232 30.643391c9.233875-0.045965 17.747631 2.507651 25.53616 7.660848 6.287002 6.041855 6.287002 12.001995 0 17.875312-10.199142-6.368718-20.413606-10.623042-30.643392-12.76808a229.314713 229.314713 0 0 1-51.072319 68.947631c28.176599 79.381706 43.498294 161.097416 45.965087 245.147132 99.044549 2.814085 137.348788 52.180589 114.912718 148.109726-29.049935 44.958963-63.952758 51.77201-104.698254 20.428928z" fill="#121212" p-id="1263"></path><path d="M709.911621 357.506234h40.857855v15.321696c-24.836469-1.634314-48.67192 0.071501-71.501247 5.107232-4.473935-0.66394-7.880459 1.036768-10.214463 5.107232a331.321456 331.321456 0 0 0 81.71571 5.107232c2.987731 14.09596-2.119501 22.609716-15.321695 25.53616a196.694823 196.694823 0 0 0-66.394015-10.214464v15.321695a150.729736 150.729736 0 0 1 71.501246 12.76808c-22.997865 45.607581-58.748489 77.10388-107.25187 94.483791-4.525007 4.213466-6.225716 9.320698-5.107232 15.321696 20.102065 0.112359 38.830284-4.994873 56.179551-15.321696 43.19186 94.146713 55.95994 192.884828 38.30424 296.219451-5.061267 7.349307-11.869207 12.456539-20.428928 15.321696a25.199082 25.199082 0 0 0-2.553616 15.321696c35.883411-0.873337 43.544259 12.747651 22.982544 40.857855-0.929516-17.267551-8.590364-22.374783-22.982544-15.321696 6.154214 7.635312 6.154214 14.443252 0 20.428928h-30.643391a1205.439521 1205.439521 0 0 1-5.107232-143.002494 61.225496 61.225496 0 0 1 5.107232-30.643391c-4.029606-10.153177-9.984638-11.853885-17.875312-5.107232a1294.009137 1294.009137 0 0 0-30.643392 158.324189c23.365586 16.332928 23.365586 33.360439 0 51.072319-8.600579-32.905895-14.560718-32.905895-17.875311 0h-20.428928c-5.623062-26.578035-12.43611-26.578035-20.428928 0a75.791322 75.791322 0 0 1-17.875311-20.428927 1855.692289 1855.692289 0 0 1 12.768079-171.09227l-5.107232-28.089775a18.626075 18.626075 0 0 0-7.660847 5.107232c-6.721117 16.281855-9.274733 33.309367-7.660848 51.072319-3.273736 7.875352-8.380968 14.688399-15.321696 20.428928-15.842633-10.699651-27.757805-24.320638-35.750624-40.857856a263.778314 263.778314 0 0 0-5.107231-35.750623h-15.321696c1.14402 54.601416 4.545436 109.075152 10.214464 163.431421 3.636349 24.126564-4.024499 42.854783-22.982544 56.179551a43.079501 43.079501 0 0 1-2.553616-20.428927h-15.321696v25.536159h-20.428927v-30.643391h-15.321696c-3.125626 32.645426-9.933566 32.645426-20.428928 0a624.675751 624.675751 0 0 0 20.428928-40.857855 14965.451012 14965.451012 0 0 1-28.089776-143.002494c-5.163411-4.274753-11.123551-5.975461-17.875311-5.107232v35.750623c0.8478 37.49219 0 74.943521-2.553616 112.359103a194.248459 194.248459 0 0 1-12.76808 33.197007c-8.345217 2.522973-16.853865 3.370773-25.53616 2.553616v-25.53616h-15.321696c1.338095 7.548489-0.362613 14.356429-5.107232 20.428928-17.655701-27.732269-9.141945-42.206165 25.53616-43.411471 4.274753-5.163411 5.975461-11.123551 5.107232-17.875312-14.535182-1.578135-22.19603-10.086783-22.982544-25.53616-8.769117-96.593077 3.998963-190.22396 38.30424-280.897755a147.93608 147.93608 0 0 0 40.857855 15.321696c7.660848 0.24004 12.76808-3.161377 15.321696-10.214464-48.110125-21.751701-85.561456-54.948708-112.359102-99.591023 20.755791-9.652668 42.885426-14.7599 66.394015-15.321696 2.334005-2.114394 4.034713-4.66801 5.107232-7.660847-24.346175-6.5679-48.176519-4.867192-71.501247 5.107232-7.405486-6.894763-10.81201-15.403411-10.214464-25.53616a331.331671 331.331671 0 0 0 81.715711-5.107232c-28.294065-11.506594-57.231641-13.212409-86.822943-5.107232v-25.53616a376.392778 376.392778 0 0 1 91.930174 15.321696v-15.321696a389.620509 389.620509 0 0 0-61.286783-10.214463c-10.372788-2.410613-18.886544-7.517845-25.536159-15.321696 4.969337-25.301227 14.330893-49.136678 28.089775-71.501247l5.107232-107.25187c4.821227-37.747551 22.696539-45.408399 53.625935-22.982544L426.460249 194.074813c25.546374-7.798743 51.935441-11.205267 79.162095-10.214464a327.286743 327.286743 0 0 1 89.376559 10.214464c27.778234-35.459511 60.975242-64.402195 99.591022-86.822943 12.742544 8.426933 20.403392 20.342105 22.982544 35.750624l5.107232 112.359102c16.710863 24.872219 26.077526 52.109087 28.089775 81.715711a487.388249 487.388249 0 0 0-81.71571 12.76808c-10.515791 6.057177-11.368698 12.012209-2.553616 17.875311 13.477985-7.630204 27.946773-11.036728 43.411471-10.214464z" fill="#FFFFFF" p-id="1264"></path><path d="M413.69217 316.648379c35.025397 3.202234 41.828229 17.671022 20.428927 43.411471-25.515731 3.391202-34.882394-7.671062-28.089775-33.197007 3.661885-2.778334 6.215501-6.179751 7.660848-10.214464z" fill="#131212" p-id="1265"></path><path d="M582.230823 316.648379c31.373726 2.686404 38.181666 17.160299 20.428928 43.411471-25.515731 3.391202-34.882394-7.671062-28.089776-33.197007 3.661885-2.778334 6.215501-6.179751 7.660848-10.214464z" fill="#0C0C0C" p-id="1266"></path><path d="M270.689676 326.862843c6.649616 7.80385 15.163372 12.911082 25.536159 15.321696h-30.643391c-1.210414-6.593436 0.490294-11.700668 5.107232-15.321696z" fill="#5B5B5B" p-id="1267"></path><path d="M485.193416 347.291771a209.074753 209.074753 0 0 1 45.965088 2.553616c7.696599 4.274753 10.250214 10.234893 7.660848 17.875311-25.817057 23.626055-21.562733 36.394135 12.768079 38.30424 7.727242-9.805885 16.240998-16.618933 25.53616-20.428928 5.194055 5.362594 6.046963 11.317626 2.553616 17.875312-19.99992 22.824219-42.982464 26.230743-68.947631 10.214464-21.10819 13.447342-42.390025 13.447342-63.840399 0-5.153197-7.788529-7.706813-16.302284-7.660848-25.53616 11.869207 0.827372 20.382963 6.782404 25.53616 17.875312 17.201157 6.154214 29.121436 1.046983 35.750623-15.321696a201.133007 201.133007 0 0 1-25.536159-28.089776 950.966584 950.966584 0 0 0 10.214463-15.321695z" fill="#131313" p-id="1268"></path><path d="M709.911621 357.506234c14.233855-4.989766 29.555551-6.690474 45.965087-5.107232v25.53616h-76.608479c22.829327-5.035731 46.664778-6.741546 71.501247-5.107232v-15.321696h-40.857855z" fill="#979797" p-id="1269"></path><path d="M352.405387 750.763092c11.332948 33.528978 19.841596 68.426693 25.536159 104.698255-13.013227 13.294125-19.826274 29.463621-20.428928 48.518703-16.409536 1.583242-31.731232-0.117466-45.965087-5.107232 8.682294 0.817157 17.190943-0.030643 25.53616-2.553616a194.248459 194.248459 0 0 0 12.76808-33.197007c2.553616-37.415581 3.401416-74.866913 2.553616-112.359103zM663.946534 755.870324a1205.439521 1205.439521 0 0 0 5.107232 143.002494h30.643391c-11.20016 6.62408-23.120439 6.62408-35.750623 0a137.139392 137.139392 0 0 0-17.875312-30.643392c-0.040858-38.881357 5.914175-76.332688 17.875312-112.359102zM485.193416 745.65586c7.992818 16.537217 19.90799 30.158204 35.750624 40.857856 6.940728-5.740529 12.04796-12.553576 15.321696-20.428928a7343.234234 7343.234234 0 0 1-15.321696 127.680798h-25.53616a2897.409277 2897.409277 0 0 1-10.214464-148.109726z" fill="#FFFFFF" p-id="1270"></path><path d="M776.305636 878.44389h-15.321696c1.210414-6.593436-0.490294-11.700668-5.107232-15.321695-2.798763-9.673097-7.905995-18.181746-15.321696-25.53616 13.309446-5.883531 26.930434-6.731332 40.857856-2.553616 13.636309 16.149067 11.935601 30.617855-5.107232 43.411471z" fill="#EDECEB" p-id="1271"></path><path d="M755.876708 776.299252c47.149965-0.750763 80.346973 19.678165 99.591023 61.286783 5.847781 31.828269-3.513776 58.217337-28.089776 79.162095-27.762913 15.071441-38.830284 7.410594-33.197007-22.982544 32.885466-31.869127 30.33185-59.958903-7.660848-84.269327a127.348828 127.348828 0 0 0-35.750624-2.553616 98.160998 98.160998 0 0 1 5.107232-30.643391z" fill="#FFFFFF" p-id="1272"></path></svg>